# xmcd
#
# Track frame offsets:
#	183
#	16575
#	30018
#	46403
#	71753
#	83955
#	97745
#	119695
#	131288
#	144683
#	157675
#	182963
#	196060
#	217633
#	237555
#	250250
#
# Disc length: 3493
#
# Revision: 5
# Processed by: cddbd v1.5.1PL0 Copyright (c) Steve Scherf et al.
# Submitted via: audiograbber 1.83.01
# Normalized: r4:DSETVAR1
#
DISCID=c70da310
DTITLE=Various Artist - Get the Blues , 50 years of timeless blues
DYEAR=1900
DGENRE=
TTITLE0=The Blues band - Lonely Avenue
TTITLE1=Sonny Boy Williamson - Sugar Mama Blues
TTITLE2=Joe Williams - Rocks in my Bed
TTITLE3=Louise Tucker - Bluesy
TTITLE4=Joe Tucker - Lonesome Train
TTITLE5=Johhny Moore's Three Blazers - How Blue Can You Get
TTITLE6=Vaya con Dios - Lulu's Song
TTITLE7=Eddie Cleanhead Vinsion - Cleanhead Blues
TTITLE8=The Guess Who - 969 The Oldest Man
TTITLE9=Delta Rhythm Boys - Dry Bones
TTITLE10=Livin' Blues - Shylena
TTITLE11=Leadbelly - Good Morning Blues
TTITLE12=The Blues Band - That's Alright
TTITLE13=Otis Spann - Moon Blues
TTITLE14=Livin' Blues - The Great Grandfather
TTITLE15=Rene Hall - Two Guitar Boogie
EXTD=
EXTT0=
EXTT1=
EXTT2=
EXTT3=
EXTT4=
EXTT5=
EXTT6=
EXTT7=
EXTT8=
EXTT9=
EXTT10=
EXTT11=
EXTT12=
EXTT13=
EXTT14=
EXTT15=
PLAYORDER=
